<?xml version="1.0" encoding="utf-8"?>
<!-- Generator: Adobe Illustrator 23.1.1, SVG Export Plug-In . SVG Version: 6.00 Build 0)  -->
<svg version="1.1" id="Ebene_1" xmlns="http://www.w3.org/2000/svg" xmlns:xlink="http://www.w3.org/1999/xlink" x="0px" y="0px"
	 viewBox="0 0 595.3 841.9" style="enable-background:new 0 0 595.3 841.9;" xml:space="preserve">
<style type="text/css">
	.st0{fill:#FFFFFF;}
</style>
<g id="Barcelona">
	<path class="st0" d="M125.9,88.1c0-22.9-1.7-42.6-4.2-51.4c1.3-0.9,2.1-2.4,2.1-4.1c0-2.8-2.2-5-5-5s-5,2.2-5,5
		c0,1.7,0.8,3.2,2.1,4.1c-2.5,8.8-4.2,28.5-4.2,51.4v8.3l14.2,6.4V88.1z M118.8,53.9c-0.9,0-1.7-0.8-1.7-1.7s0.8-1.7,1.7-1.7
		c0.9,0,1.7,0.8,1.7,1.7S119.8,53.9,118.8,53.9z M118.8,47.7c-0.9,0-1.7-0.8-1.7-1.7s0.8-1.7,1.7-1.7c0.9,0,1.7,0.8,1.7,1.7
		S119.8,47.7,118.8,47.7z M118.8,41.5c-0.9,0-1.7-0.8-1.7-1.7s0.8-1.7,1.7-1.7c0.9,0,1.7,0.8,1.7,1.7S119.8,41.5,118.8,41.5z"/>
	<path class="st0" d="M125.9,107l-14.2-6.4v34.1l14.2,6.5l0,0V107L125.9,107z M118.8,132.9c-0.9,0-1.7-0.8-1.7-1.7s0.8-1.7,1.7-1.7
		c0.9,0,1.7,0.8,1.7,1.7S119.8,132.9,118.8,132.9z M118.8,126.7c-0.9,0-1.7-0.8-1.7-1.7c0-0.9,0.8-1.7,1.7-1.7
		c0.9,0,1.7,0.8,1.7,1.7S119.8,126.7,118.8,126.7z M118.8,120.4c-0.9,0-1.7-0.8-1.7-1.7c0-0.9,0.8-1.7,1.7-1.7
		c0.9,0,1.7,0.8,1.7,1.7C120.5,119.7,119.8,120.4,118.8,120.4z"/>
	<polygon class="st0" points="45.8,154.5 45.8,172 125.9,172 125.9,154.5 85.9,136.1 	"/>
	<path class="st0" d="M45.8,145.3v5l39-17.9c0.7-0.3,1.5-0.3,2.2,0l39,17.9v-5L85.8,127L45.8,145.3z"/>
	<path class="st0" d="M59.8,88.4c0-23.1-1.7-42.9-4.2-51.6c1.3-0.9,2.2-2.4,2.2-4.1c0-2.8-2.2-5-5-5s-5,2.2-5,5
		c0,1.7,0.9,3.2,2.2,4.1c-2.5,8.7-4.2,28.5-4.2,51.6v14.2l14-6.4V88.4z M52.8,53.9c-0.9,0-1.7-0.8-1.7-1.7s0.8-1.7,1.7-1.7
		s1.7,0.8,1.7,1.7S53.7,53.9,52.8,53.9z M52.8,47.7c-0.9,0-1.7-0.8-1.7-1.7s0.8-1.7,1.7-1.7s1.7,0.8,1.7,1.7S53.7,47.7,52.8,47.7z
		 M52.8,41.5c-0.9,0-1.7-0.8-1.7-1.7s0.8-1.7,1.7-1.7s1.7,0.8,1.7,1.7S53.7,41.5,52.8,41.5z"/>
	<path class="st0" d="M59.8,134.7v-34.3l-14,6.4l0,0v29.8v4.5l0,0L59.8,134.7z M52.8,117.1c0.9,0,1.7,0.8,1.7,1.7
		c0,0.9-0.8,1.7-1.7,1.7s-1.7-0.8-1.7-1.7C51.1,117.8,51.9,117.1,52.8,117.1z M52.8,123.3c0.9,0,1.7,0.8,1.7,1.7
		c0,0.9-0.8,1.7-1.7,1.7s-1.7-0.8-1.7-1.7C51.1,124,51.9,123.3,52.8,123.3z M52.8,129.5c0.9,0,1.7,0.8,1.7,1.7s-0.8,1.7-1.7,1.7
		s-1.7-0.8-1.7-1.7S51.9,129.5,52.8,129.5z"/>
	<path class="st0" d="M107.9,94.6L107.9,94.6V47.1v-4.5v1.9c-0.2-16.2-2-29.9-4.6-35.3c1.5-0.9,2.5-2.5,2.5-4.3c0-2.8-2.2-5-5-5
		s-5,2.2-5,5c0,1.9,1,3.5,2.5,4.3c-2.6,5.4-4.4,19.1-4.6,35.3v-1.9v4.5v41l0,0L107.9,94.6z M100.8,26.9c-0.9,0-1.7-0.8-1.7-1.7
		c0-0.9,0.8-1.7,1.7-1.7s1.7,0.8,1.7,1.7C102.5,26.2,101.8,26.9,100.8,26.9z M100.8,20.7c-0.9,0-1.7-0.8-1.7-1.7
		c0-0.9,0.8-1.7,1.7-1.7s1.7,0.8,1.7,1.7C102.5,20,101.8,20.7,100.8,20.7z M100.8,14.5c-0.9,0-1.7-0.8-1.7-1.7s0.8-1.7,1.7-1.7
		s1.7,0.8,1.7,1.7S101.8,14.5,100.8,14.5z"/>
	<path class="st0" d="M77.7,88V45.7c0-16.7-1.9-30.9-4.6-36.4c1.5-0.9,2.5-2.5,2.5-4.3c0-2.8-2.2-5-5-5s-5,2.2-5,5
		c0,1.9,1,3.5,2.5,4.3c-2.4,4.9-4.2,16.7-4.5,31c0,1.8-0.1,3.6-0.1,5.5v48.8h0.1L77.7,88z M70.6,26.9c-0.9,0-1.7-0.8-1.7-1.7
		c0-0.9,0.8-1.7,1.7-1.7s1.7,0.8,1.7,1.7C72.3,26.2,71.6,26.9,70.6,26.9z M70.6,20.7c-0.9,0-1.7-0.8-1.7-1.7c0-0.9,0.8-1.7,1.7-1.7
		s1.7,0.8,1.7,1.7C72.3,20,71.6,20.7,70.6,20.7z M70.6,14.5c-0.9,0-1.7-0.8-1.7-1.7s0.8-1.7,1.7-1.7s1.7,0.8,1.7,1.7
		S71.6,14.5,70.6,14.5z"/>
	<path class="st0" d="M77.7,126.5l6.9-3.2c0.7-0.3,1.5-0.3,2.2,0l16.4,7.5l4.7,2.1l0,0V98.8l0,0l-14.2-6.5l-8.3-3.8l-7.8,3.6
		l-14.1,6.5h-0.1v30.2v4.1h0.1L77.7,126.5z M77.7,98c2.1-1.8,4.9-3,7.9-3c3.1,0,6,1.2,8.1,3.2c2.4,2.2,4,5.4,4,8.9s-1.5,6.7-4,8.9
		c-2.1,2-5,3.2-8.1,3.2c-3,0-5.8-1.1-7.9-3c-2.5-2.2-4.2-5.5-4.2-9.1S75.2,100.2,77.7,98z"/>
	<path class="st0" d="M85.6,116c3.6,0,6.8-2.2,8.1-5.4c0.5-1.1,0.7-2.2,0.7-3.4c0-1.2-0.3-2.4-0.7-3.4c-1.3-3.2-4.5-5.4-8.1-5.4
		c-3.5,0-6.5,2-7.9,4.9c-0.6,1.2-0.9,2.5-0.9,3.9s0.3,2.7,0.9,3.9C79.2,113.9,82.2,116,85.6,116z"/>
</g>
</svg>
