<?xml version="1.0" encoding="utf-8"?>
<!-- Generator: Adobe Illustrator 23.1.1, SVG Export Plug-In . SVG Version: 6.00 Build 0)  -->
<svg version="1.1" id="Ebene_1" xmlns="http://www.w3.org/2000/svg" xmlns:xlink="http://www.w3.org/1999/xlink" x="0px" y="0px"
	 viewBox="0 0 595.3 841.9" style="enable-background:new 0 0 595.3 841.9;" xml:space="preserve">
<style type="text/css">
	.st0{fill:#FFFFFF;}
</style>
<g id="London">
	<path class="st0" d="M62.9,86.4v9h9C68.4,93.1,65.2,90,62.9,86.4z"/>
	<rect x="94.3" y="99.6" class="st0" width="5.7" height="8.7"/>
	<path class="st0" d="M86.7,95.4c13.1,0,23.8-10.7,23.8-23.8S99.9,47.8,86.7,47.8S62.9,58.4,62.9,71.6S73.7,95.4,86.7,95.4z
		 M77.3,62.1c0.8-0.8,2.2-0.8,3,0l5.8,5.8l6.4-13.2c0.5-1.1,1.8-1.5,2.9-1s1.5,1.8,1,2.9l-7.7,15.9c0,0,0,0,0,0.1
		c-0.1,0.1-0.2,0.3-0.3,0.4l-0.1,0.1l0,0c-0.1,0.1-0.2,0.2-0.4,0.3h-0.1c-0.1,0.1-0.3,0.1-0.4,0.2h-0.1c-0.2,0-0.3,0.1-0.5,0.1l0,0
		l0,0c-0.1,0-0.3,0-0.4,0h-0.1c-0.1,0-0.2-0.1-0.3-0.1c0,0,0,0-0.1,0c0,0-0.1,0-0.1-0.1c-0.1,0-0.1-0.1-0.2-0.1s-0.1-0.1-0.2-0.1
		l-0.1-0.1l-8-8C76.5,64.3,76.5,63,77.3,62.1z"/>
	<rect x="62.9" y="99.6" class="st0" width="6.6" height="8.7"/>
	<rect x="73.8" y="99.6" class="st0" width="6" height="8.7"/>
	<rect x="55.1" y="47.8" class="st0" width="3.7" height="47.6"/>
	<path class="st0" d="M71.9,47.8h-9v9C65.2,53.1,68.4,50,71.9,47.8z"/>
	<path class="st0" d="M85.5,1.2l-5.4,6.5c-0.9,1.1-0.1,2.7,1.3,2.7h10.8c1.4,0,2.1-1.6,1.3-2.7L88,1.2C87.3,0.5,86.1,0.5,85.5,1.2z"
		/>
	<rect x="76.6" y="13.8" class="st0" width="20.5" height="3.8"/>
	<polygon class="st0" points="97.9,21.8 75.8,21.8 71.5,30.6 102,30.6 	"/>
	<rect x="84.1" y="99.6" class="st0" width="6" height="8.7"/>
	<path class="st0" d="M110.5,56.8v-9h-9C105.2,50,108.3,53.1,110.5,56.8z"/>
	<polygon class="st0" points="114.8,95.4 114.8,95.4 118.4,95.4 118.4,47.8 114.8,47.8 	"/>
	<rect x="62.9" y="34.8" class="st0" width="47.6" height="8.7"/>
	<path class="st0" d="M101.5,95.4h9v-9C108.3,90,105.2,93.1,101.5,95.4z"/>
	<path class="st0" d="M62.9,171.3h47.6v-58.7H62.9V171.3z M97.7,117.6h4.2v48.8h-4.2V117.6z M84.7,117.7h4.2v48.8h-4.2V117.7z
		 M71.9,117.6h4.2v48.8h-4.2V117.6z"/>
	<polygon class="st0" points="104.2,108.3 110.5,108.3 110.5,99.6 110.5,99.6 104.2,99.6 	"/>
</g>
</svg>
