<?xml version="1.0" encoding="utf-8"?>
<!-- Generator: Adobe Illustrator 23.1.1, SVG Export Plug-In . SVG Version: 6.00 Build 0)  -->
<svg version="1.1" id="Ebene_1" xmlns="http://www.w3.org/2000/svg" xmlns:xlink="http://www.w3.org/1999/xlink" x="0px" y="0px"
	 viewBox="0 0 595.3 841.9" style="enable-background:new 0 0 595.3 841.9;" xml:space="preserve">
<style type="text/css">
	.st0{fill:#FFFFFF;}
</style>
<g id="Berlin">
	<rect x="41.6" y="61.8" class="st0" width="23.6" height="6.7"/>
	<rect x="47.9" y="46.1" class="st0" width="8" height="11.5"/>
	<rect x="24.6" y="46.1" class="st0" width="7.9" height="11.5"/>
	<rect x="36.7" y="46.4" class="st0" width="7.1" height="11.2"/>
	<rect x="13.4" y="46.1" class="st0" width="7.1" height="11.2"/>
	<rect x="46.2" y="73.5" class="st0" width="14.5" height="76.4"/>
	<rect x="60.1" y="46.4" class="st0" width="7.1" height="11.2"/>
	<rect x="41.6" y="154.1" class="st0" width="23.6" height="6.7"/>
	<rect x="71.3" y="46.1" class="st0" width="7.9" height="11.5"/>
	<polygon class="st0" points="94.7,10.9 87.4,10.9 87.4,14.9 98,14.9 	"/>
	<polygon class="st0" points="112.9,22.2 112.9,18.9 106.9,18.9 87.4,18.9 87.4,32.4 112.9,32.4 	"/>
	<polygon class="st0" points="146.7,29.4 147.7,26.4 117.1,26.4 117.1,32.4 147.7,32.4 	"/>
	<polygon class="st0" points="83.3,10.9 75.5,10.9 72.2,14.9 83.3,14.9 	"/>
	<polygon class="st0" points="53.4,32.4 53.4,26.4 22.8,26.4 23.8,29.4 22.8,32.4 	"/>
	<rect x="13.8" y="73.5" class="st0" width="14.5" height="76.4"/>
	<polygon class="st0" points="83.3,18.9 63.3,18.9 57.8,18.9 57.8,32.4 83.3,32.4 	"/>
	<rect x="9.2" y="154.1" class="st0" width="23.6" height="6.7"/>
	<rect x="9.2" y="61.8" class="st0" width="23.6" height="6.7"/>
	<rect x="83.3" y="46.1" class="st0" width="7.1" height="11.2"/>
	<rect x="138.7" y="154.1" class="st0" width="23.6" height="6.7"/>
	<rect x="143.1" y="73.5" class="st0" width="14.5" height="76.4"/>
	<rect x="138.7" y="61.8" class="st0" width="23.6" height="6.7"/>
	<rect x="129.1" y="46.1" class="st0" width="7.1" height="11.2"/>
	<rect x="140.4" y="46.1" class="st0" width="7.4" height="11.5"/>
	<rect x="151.8" y="46.4" class="st0" width="7.1" height="11.2"/>
	<polygon class="st0" points="171.8,36.6 0.3,36.6 7.8,42 9.2,42 24.6,42 79.2,42 94.5,42 125.1,42 140.4,42 164.2,42 	"/>
	<rect x="110.8" y="73.5" class="st0" width="14.5" height="76.4"/>
	<polygon class="st0" points="94.5,57.7 100.9,57.7 102.3,57.7 102.3,46.1 94.5,46.1 	"/>
	<rect x="74" y="61.8" class="st0" width="23.6" height="6.7"/>
	<rect x="78.5" y="73.5" class="st0" width="14.5" height="76.4"/>
	<rect x="106.5" y="46.3" class="st0" width="7.1" height="11.2"/>
	<rect x="117.7" y="46.1" class="st0" width="7.4" height="11.5"/>
	<rect x="106.3" y="154.1" class="st0" width="23.6" height="6.7"/>
	<rect x="106.3" y="61.8" class="st0" width="23.6" height="6.7"/>
	<polygon class="st0" points="73.2,154.1 73.2,160.6 96.8,160.6 96.8,154.1 74,154.1 	"/>
</g>
</svg>
