<?xml version="1.0" encoding="utf-8"?>
<!-- Generator: Adobe Illustrator 23.1.1, SVG Export Plug-In . SVG Version: 6.00 Build 0)  -->
<svg version="1.1" id="Ebene_1" xmlns="http://www.w3.org/2000/svg" xmlns:xlink="http://www.w3.org/1999/xlink" x="0px" y="0px"
	 viewBox="0 0 595.3 841.9" style="enable-background:new 0 0 595.3 841.9;" xml:space="preserve">
<style type="text/css">
	.st0{fill:#FFFFFF;}
</style>
<g id="NYC">
	<path class="st0" d="M104,128.3v-13.5v-5.1c0-11.2-7.7-20.4-17.2-20.4c-9.1,0-16.5,8.4-17.1,19c0.4,9.2,8,16.6,17.4,16.6v3.4H104z
		 M85.1,110.4v-5.9l-7.9,2.1c-0.2,0-0.4,0.1-0.5,0.1c-0.9,0-1.8-0.6-2-1.6c-0.3-1.1,0.4-2.3,1.5-2.6l10.6-2.8h0.1c0.1,0,0.2,0,0.2,0
		c0.1,0,0.1,0,0.2,0s0.1,0,0.2,0s0.2,0,0.2,0h0.1l10.6,2.8c1.1,0.3,1.8,1.5,1.5,2.6c-0.3,0.9-1.1,1.6-2,1.6c-0.2,0-0.4,0-0.5-0.1
		l-7.9-2.1v5.9H85.1z"/>
	<path class="st0" d="M69.6,120.3v4.2l4.3,3.9h7.3C76.5,127,72.5,124.1,69.6,120.3z"/>
	<rect x="16.9" y="29" class="st0" width="29.7" height="4.5"/>
	<path class="st0" d="M104,95c-0.6-8.7-8-15.5-17.1-15.5S70.3,86.4,69.7,95c3.9-6,10.1-9.9,17.1-9.9C93.8,85.1,100,89,104,95z"/>
	<path class="st0" d="M38.1,37.7H25.4v4.5c0,2.8,2.3,5.1,5.1,5.1h7.6V37.7L38.1,37.7z"/>
	<polygon class="st0" points="121.4,160.3 115.4,165 112.9,161.7 122.1,154.6 109,132.4 108.8,132.4 73.1,171.4 127.8,171.4 	"/>
	<polygon class="st0" points="74.4,132.4 46.4,163.2 46.3,163.2 46.3,171.4 67.4,171.4 103.2,132.4 	"/>
	<polygon class="st0" points="32.8,51.5 35.6,134.9 42.3,127.5 42.4,127.6 54.3,114.4 38.5,51.5 	"/>
	
		<rect x="30.9" y="129.5" transform="matrix(0.6727 -0.7399 0.7399 0.6727 -86.1142 82.6009)" class="st0" width="38.8" height="18.3"/>
	<rect x="84.8" y="45.1" class="st0" width="4.2" height="26.4"/>
	
		<rect x="69.9" y="53.4" transform="matrix(0.9072 -0.4206 0.4206 0.9072 -19.9258 36.1522)" class="st0" width="4.2" height="19.7"/>
	
		<rect x="60.3" y="61.8" transform="matrix(0.7071 -0.7071 0.7071 0.7071 -31.663 64.8078)" class="st0" width="4.2" height="17.7"/>
	
		<rect x="57.3" y="76.6" transform="matrix(0.4201 -0.9075 0.9075 0.4201 -39.7339 101.3569)" class="st0" width="4.2" height="10.3"/>
	
		<rect x="92.7" y="61.2" transform="matrix(0.4207 -0.9072 0.9072 0.4207 1.9856 129.6928)" class="st0" width="19.7" height="4.2"/>
	
		<rect x="104.5" y="70.2" transform="matrix(0.7399 -0.6727 0.6727 0.7399 -19.4737 94.1927)" class="st0" width="15.2" height="4.2"/>
	<rect x="109.8" y="81.2" transform="matrix(0.9902 -0.1396 0.1396 0.9902 -10.51 16.765)" class="st0" width="8.9" height="4.2"/>
	<path class="st0" d="M24.2,24.5h15.1c3.3-2.4,5.3-6.3,5.3-10.8V0.2l-6.4,13.6L31.7,0.2l-6.1,13.6L18.9,0.2v13.6
		C18.9,18.2,20.9,22.1,24.2,24.5z"/>
</g>
</svg>
