<?xml version="1.0" encoding="utf-8"?>
<!-- Generator: Adobe Illustrator 23.1.1, SVG Export Plug-In . SVG Version: 6.00 Build 0)  -->
<svg version="1.1" id="Ebene_1" xmlns="http://www.w3.org/2000/svg" xmlns:xlink="http://www.w3.org/1999/xlink" x="0px" y="0px"
	 viewBox="0 0 595.3 841.9" style="enable-background:new 0 0 595.3 841.9;" xml:space="preserve">
<style type="text/css">
	.st0{fill:#FFFFFF;}
</style>
<g id="Maya_1_">
	<polygon class="st0" points="66,77 105.7,77 105.4,75 66.3,75 	"/>
	<polygon class="st0" points="56.9,132.3 114.9,132.1 114.6,130 57.2,130 	"/>
	<polygon class="st0" points="67.8,59.6 103.9,59.6 103.6,57.7 103.6,57.5 68.1,57.5 	"/>
	<polygon class="st0" points="165.2,122.8 162.4,122.8 117.4,122.8 119.2,135.9 165.2,135.9 	"/>
	<path class="st0" d="M85.8,35.8c-4.8,0-8.6,4.8-8.9,10.9h17.9C94.4,40.7,90.6,35.8,85.8,35.8z"/>
	<polygon class="st0" points="60.8,113.6 111.5,113.6 111.2,111.5 61.1,111.5 	"/>
	<polygon class="st0" points="62.5,95.3 62.5,95.3 109.5,95.3 109.5,95.3 109.3,94.3 109.2,93.1 62.8,93.1 	"/>
	<polygon class="st0" points="7.1,122.8 7.1,135.9 53.1,135.9 53.2,135.4 53.2,135.4 54.1,128.7 54.9,122.8 9.9,122.8 	"/>
	<polygon class="st0" points="0.3,140.5 0.3,153.6 50.7,153.6 52.2,142.2 52.2,142.1 52.3,141.8 52.5,140.5 2.5,140.5 	"/>
	<polygon class="st0" points="56.9,108.4 57.4,104.9 16.9,104.9 14.5,104.9 14.5,118.2 55.5,118.2 	"/>
	<polygon class="st0" points="59.8,87.1 24,87.1 21.5,87.1 21.5,100.4 58,100.4 	"/>
	<polygon class="st0" points="55.4,146.6 55.1,148.9 116.8,148.9 116.4,146.6 	"/>
	<polygon class="st0" points="119.8,140.5 121.6,153.6 172,153.6 172,140.5 169.8,140.5 	"/>
	<polygon class="st0" points="64.7,51.3 53.6,51.3 35.8,51.3 35.8,64.6 62.9,64.6 	"/>
	<polygon class="st0" points="110.9,75.3 110.9,75.7 110.9,75.7 111.8,82.3 111.8,82.3 111.8,82.5 143.7,82.5 143.7,69.2 
		141.1,69.2 110,69.2 	"/>
	<path class="st0" d="M108.1,54.9c0.1,0.2,0.2,0.5,0.2,0.8c0,0.1,0,0.1,0,0.2l0.9,6.6l0,0l0.3,2.2h27.1V51.3h-18.4h-10.6L108.1,54.9
		z"/>
	<polygon class="st0" points="112.7,88.5 114.2,100 114.3,100.4 150.8,100.4 150.8,87.1 148.3,87.1 112.5,87.1 	"/>
	<polygon class="st0" points="115.4,108.7 116.7,118.2 157.8,118.2 157.8,104.9 155.4,104.9 114.9,104.9 	"/>
	<polygon class="st0" points="62.3,69.2 31.2,69.2 28.6,69.2 28.6,82.5 60.4,82.5 	"/>
	<rect x="58.2" y="20.8" class="st0" width="55.3" height="3.3"/>
	<path class="st0" d="M70,46.8h2.8c0.3-8.3,6-15,13-15s12.7,6.7,13,15h3.4h2.6h8.6V28.7H58.2v18.1h8.7C66.9,46.8,70,46.8,70,46.8z"
		/>
	<path class="st0" d="M58.2,18.8h55.3v5.3H58.2V18.8z"/>
</g>
</svg>
