<?xml version="1.0" encoding="utf-8"?>
<!-- Generator: Adobe Illustrator 23.1.1, SVG Export Plug-In . SVG Version: 6.00 Build 0)  -->
<svg version="1.1" id="Ebene_1" xmlns="http://www.w3.org/2000/svg" xmlns:xlink="http://www.w3.org/1999/xlink" x="0px" y="0px"
	 viewBox="0 0 595.3 841.9" style="enable-background:new 0 0 595.3 841.9;" xml:space="preserve">
<style type="text/css">
	.st0{fill:#FFFFFF;}
</style>
<g id="Rio">
	<rect x="46.2" y="140.4" class="st0" width="79" height="31.4"/>
	<path class="st0" d="M108,62.7c-3.1,5.5-7.2,10.3-11.8,14.1l0,0v30.4H108V62.7z"/>
	<path class="st0" d="M76.4,51.2c0.6-0.4,1.1-0.9,1.6-1.4c1.9-1.9,3.5-4.2,4.6-6.8h-7.9l-11.3,6.5v0.2v1.4v4.5h0.1
		C68.3,55.7,72.8,54,76.4,51.2z"/>
	<polygon class="st0" points="63.4,98 63.4,120.9 108,120.9 108,111.4 82.1,111.4 82.1,111.4 	"/>
	<path class="st0" d="M83.5,107.2h8.4V79.8c-6.5,4.1-13.9,6.4-21.4,6.4c-2.4,0-4.8-0.2-7.2-0.7h-0.1v7.3l0.1,0.1L83.5,107.2z"/>
	<path class="st0" d="M108,52.2v-1v-1.4v-0.2l-7.7-4.5c-0.6,1.6-1.2,3.2-2,4.7c-0.2,0.5-0.5,1-0.7,1.4C90.9,64,78.7,72.6,67,72.6
		c-1.2,0-2.4-0.1-3.6-0.3v8.8c0.1,0,0.2,0,0.3,0C82,85.3,101.4,72.6,108,52.2z"/>
	<path class="st0" d="M92.7,51.2c0.3-0.5,0.6-0.9,0.8-1.4c1.2-2.1,2.2-4.4,3-6.8h-9.3c-0.8,2.5-2,4.8-3.5,6.8
		c-0.4,0.5-0.7,1-1.1,1.4c-4.6,5.4-11.5,8.7-19,8.8l0,0h-0.1v8.2c0.1,0,0.2,0,0.4,0C74.1,69.9,85.8,62.6,92.7,51.2z"/>
	<polygon class="st0" points="122.8,136.2 110.4,125.2 61,125.2 48.6,136.2 	"/>
	<path class="st0" d="M70.6,22.7L70.6,22.7c0-0.1,0-0.2,0-0.3v-0.1c0-0.1,0.1-0.2,0.1-0.3v-0.1c0,0,0-0.1,0.1-0.1
		c0-0.1,0.1-0.2,0.1-0.2l0.1-0.1c0.1-0.1,0.1-0.2,0.2-0.2l0,0L85.7,7.2l14.5,14l0,0c0.1,0.1,0.1,0.1,0.2,0.2l0.1,0.1
		c0,0.1,0.1,0.1,0.1,0.2s0.1,0.1,0.1,0.2s0,0.1,0.1,0.2c0,0.1,0,0.1,0.1,0.2c0,0.1,0,0.1,0,0.2s0,0.2,0,0.3l0,0v17.8l7.1,4.1V22.5
		c0-12.3-10-22.3-22.3-22.3l0,0c-12.3,0-22.3,10-22.3,22.3v22.1l7.2-4.2L70.6,22.7L70.6,22.7z"/>
	<polygon class="st0" points="74.8,38.7 96.7,38.7 96.7,23.6 85.7,13.1 74.8,23.6 	"/>
	<polygon class="st0" points="59,49.8 40.3,49.8 40.3,69 45,76.8 59,76.8 	"/>
	<polygon class="st0" points="25.2,56 16.2,56 16.2,63.3 25.2,63.3 25.2,63.3 36,63.3 36,49.8 25.2,49.8 	"/>
	<polygon class="st0" points="146.5,55.5 146.5,49.3 135.1,49.3 135.1,62.8 146.5,62.8 146.5,62.8 155.6,62.8 155.6,55.5 	"/>
	<polygon class="st0" points="112.3,76.3 126.3,76.3 130.9,68.8 130.9,49.3 112.3,49.3 	"/>
</g>
</svg>
