<?xml version="1.0" encoding="utf-8"?>
<!-- Generator: Adobe Illustrator 23.1.1, SVG Export Plug-In . SVG Version: 6.00 Build 0)  -->
<svg version="1.1" id="Ebene_1" xmlns="http://www.w3.org/2000/svg" xmlns:xlink="http://www.w3.org/1999/xlink" x="0px" y="0px"
	 viewBox="0 0 595.3 841.9" style="enable-background:new 0 0 595.3 841.9;" xml:space="preserve">
<style type="text/css">
	.st0{fill:#FFFFFF;stroke:#FFFFFF;stroke-width:1.4852;stroke-miterlimit:10;}
</style>
<g>
	<path class="st0" d="M90,57.2l-2.2,16.6c-0.1,0.4-0.2,0.8-0.5,1.1l-6,7.8l15.2,2l-3.7-9c-0.1-0.4-0.2-0.7-0.2-1.2l2.2-16.6L90,57.2
		z"/>
	<path class="st0" d="M35.9,56.5L35.4,47c-0.1-1.6-1.4-2.9-3.1-2.9H6.5c-1.6,0-3,1.3-3.1,2.9L3,56.5C13.9,51.9,24.9,51.9,35.9,56.5z
		"/>
	<path class="st0" d="M98,116.7l-13.8-1.8L70.3,113c-0.4-0.1-0.7,0.1-0.8,0.2c-0.1,0.1-0.4,0.3-0.4,0.7l-2.2,16h30.4l1.6-12
		C99,117.3,98.6,116.8,98,116.7z"/>
	<path class="st0" d="M85.5,56.9c-3.5,0.2-7.1,0.9-10.7,2.1l-0.4,2.5c3.6,0,7.1,0.2,10.5,0.4L85.5,56.9z"/>
	<path class="st0" d="M98.6,63.6c3,0.6,6,1.3,9,2.1l0.2-2.5c-2.8-1.8-5.7-3.3-8.6-4.3L98.6,63.6z"/>
	<path class="st0" d="M106.4,45.5l-25.6-3.4c-0.1,0-0.3,0-0.4,0c-1.5,0-2.8,1-3,2.5L75.7,54c11.4-3.1,22.3-1.7,32.6,4.3l0.8-9.5
		C109.2,47.1,108,45.7,106.4,45.5z"/>
	<path class="st0" d="M33.4,115.8H5.5c-0.6,0-1.1,0.5-1.1,1.1v13h30v-13C34.5,116.3,34,115.8,33.4,115.8z"/>
	<path class="st0" d="M36.2,68.5c-2.8-0.3-6-0.7-9.1-0.9V74l4.6,7.9c0.8,1.4,0.8,3.1,0,4.5c-0.8,1.4-2.3,2.3-3.9,2.3H12.5
		c-1.6,0-3.1-0.8-3.9-2.3c-0.8-1.4-0.8-3.1,0-4.5l4.6-7.9v-6.4c-3.5,0.2-7,0.5-10.7,1L0.7,108c0,0.8,0.3,1.6,0.8,2.3
		s1.4,0.9,2.2,0.9h1.7h27.9H35c0.8,0,1.6-0.3,2.2-0.9c0.6-0.6,0.9-1.4,0.8-2.3L36.2,68.5z M32.8,97.1c-0.4,0.8-1.2,1.3-2,1.3
		c-0.3,0-0.7-0.1-1-0.2c-6.9-3.3-13.7-3.3-20.6,0c-1.1,0.5-2.5,0.1-3-1.1c-0.5-1.1-0.1-2.5,1.1-3c8.1-3.9,16.4-3.9,24.5,0
		C32.9,94.6,33.3,96,32.8,97.1z"/>
	<path class="st0" d="M17.6,57.9v16.8c0,0.4-0.1,0.8-0.3,1.1l-4.9,8.5h15.3l-4.9-8.5c-0.1-0.3-0.3-0.7-0.3-1.1V57.9H17.6z"/>
	<path class="st0" d="M27.2,63.1h-0.1c3.1,0.2,6.2,0.5,9.2,0.9l-0.1-2.5c-3-1.4-6-2.5-9-3.2V63.1z"/>
	<path class="st0" d="M13.2,58.1h-0.1c-3.4,0.6-6.9,1.8-10.3,3.5l-0.1,2.5c3.6-0.5,7.1-0.8,10.5-1V58.1z"/>
	<path class="st0" d="M155.9,57.8C155.9,57.8,155.9,57.8,155.9,57.8l0.4,4.7c3.1-0.1,6.2,0,9.2,0.2l-0.3-2.5c-3.1-1.2-6.2-2-9.3-2.5
		L155.9,57.8z"/>
	<path class="st0" d="M164.6,55.2l0-0.1c0,0,0,0,0,0l-1.1-9.4c-0.2-1.6-1.7-2.8-3.3-2.7l-12.9,1l-12.9,1c-1.6,0.2-2.9,1.6-2.8,3.2
		l0,0.1c0,0,0,0,0,0l0.3,9.5C142.4,52.3,153.4,51.5,164.6,55.2z"/>
	<path class="st0" d="M170.8,106.4L166,67.3c-3.1-0.2-6.2-0.3-9.4-0.3l0.5,6.4l5.2,7.6c0.9,1.3,1,3,0.3,4.5
		c-0.7,1.5-2.1,2.4-3.7,2.5l-15.2,1.1c-0.1,0-0.2,0-0.4,0c-1.5,0-2.9-0.7-3.7-2c-0.9-1.3-1-3-0.3-4.5l4-8.3l-0.5-6.4
		c-3.4,0.5-7,1.1-10.6,1.8l1.2,39.4c0,0.8,0.4,1.6,1,2.2c0.6,0.6,1.4,0.8,2.3,0.8l31.3-2.3c0.8-0.1,1.6-0.5,2.1-1.1
		C170.6,108,170.9,107.2,170.8,106.4z M164.6,95.9c-0.5,1.2-1.8,1.7-2.9,1.3c-7.2-2.8-13.9-2.3-20.5,1.5c-0.4,0.2-0.7,0.3-1.1,0.3
		c-0.8,0-1.5-0.4-2-1.1c-0.6-1.1-0.3-2.5,0.8-3.1c7.8-4.5,16-5.1,24.4-1.8C164.4,93.4,165,94.8,164.6,95.9z"/>
	<path class="st0" d="M97.2,74.5l3.5,8.5c0.6,1.5,0.4,3.2-0.6,4.5c-0.9,1.1-2.2,1.8-3.6,1.8c-0.2,0-0.4,0-0.6,0l-15.1-2
		c-1.6-0.2-3-1.2-3.6-2.7s-0.4-3.2,0.6-4.5l5.6-7.3l0.8-6.4c-3.5-0.3-7-0.4-10.7-0.4l-6.9,38.9c-0.1,0.8,0,1.7,0.5,2.4
		s1.2,1.1,2.1,1.2l15.5,2.1l13.8,1.8l1.7,0.2c0.8,0.1,1.7-0.1,2.3-0.6c0.7-0.5,1.1-1.3,1.1-2.1l3.4-39.3c-3-0.9-6-1.6-9.2-2.2
		L97.2,74.5z M99.8,98.1c-0.4,0.7-1.2,1-1.9,1c-0.4,0-0.9-0.1-1.2-0.4c-6.4-4.2-13.1-5.1-20.4-2.7c-1.2,0.4-2.5-0.3-2.8-1.4
		c-0.4-1.2,0.3-2.5,1.4-2.8c8.6-2.8,16.7-1.7,24.3,3.2C100.2,95.6,100.5,97,99.8,98.1z"/>
	<path class="st0" d="M142.5,63.5C142.5,63.5,142.5,63.5,142.5,63.5l-0.4-5c-3.4,0.9-6.7,2.3-10.1,4.2l0,0.1c0,0,0,0,0,0l0.1,2.5
		C135.7,64.6,139.1,64,142.5,63.5L142.5,63.5z"/>
	<path class="st0" d="M166.6,114.5l-27.8,2.1c-0.4,0-0.6,0.2-0.7,0.4c-0.2,0.2-0.3,0.4-0.3,0.8l0.9,12.1h30v0l-1-14.4
		C167.7,114.9,167.2,114.4,166.6,114.5z"/>
	<path class="st0" d="M143.4,84.6l15.2-1.1l-5.5-8.1c0-0.1-0.1-0.2-0.1-0.2c-0.1-0.3-0.3-0.6-0.3-0.9l-1.3-16.7l-4.9,0.4l1.3,16.7
		c0,0,0,0,0,0c0,0.4-0.1,0.8-0.2,1.1L143.4,84.6z"/>
</g>
</svg>
