<?xml version="1.0" encoding="utf-8"?>
<!-- Generator: Adobe Illustrator 23.1.1, SVG Export Plug-In . SVG Version: 6.00 Build 0)  -->
<svg version="1.1" id="Ebene_1" xmlns="http://www.w3.org/2000/svg" xmlns:xlink="http://www.w3.org/1999/xlink" x="0px" y="0px"
	 viewBox="0 0 595.3 841.9" style="enable-background:new 0 0 595.3 841.9;" xml:space="preserve">
<style type="text/css">
	.st0{fill:#FFFFFF;}
</style>
<g id="Japan">
	<rect x="118.4" y="86.3" class="st0" width="12.9" height="16.2"/>
	<polygon class="st0" points="134,108.1 131.4,108.1 131.4,108.1 118.4,108.1 118.4,108.1 115.8,108.1 115.8,108.1 115.1,108.1 
		115.1,161.7 135.2,161.7 135.2,108.1 	"/>
	<rect x="37" y="108.1" class="st0" width="20.1" height="53.6"/>
	<rect x="40.9" y="50.7" class="st0" width="12.9" height="17.6"/>
	<rect x="40.6" y="86.3" class="st0" width="12.9" height="17.1"/>
	<rect x="13.9" y="73" class="st0" width="144.7" height="8.6"/>
	<rect x="118.7" y="50.7" class="st0" width="12.9" height="17.6"/>
	<polygon class="st0" points="158.4,45.9 158.4,37.4 13.6,37.4 13.6,45.9 40.3,45.9 58.5,45.9 113.9,45.9 132.1,45.9 	"/>
	<rect x="58.5" y="50.7" class="st0" width="55.4" height="17.6"/>
	<path class="st0" d="M149.4,15.9c-16.9,2.4-39.3,3.7-63.1,3.7S40,18.3,23.1,15.9c-11.2-1.6-18.2-3.4-22.4-5.2v10.8
		C0.7,31,20.5,31,86.2,31c70.6,0,85.5-0.3,85.5-9.4V10.8C167.5,12.6,160.6,14.4,149.4,15.9z"/>
</g>
</svg>
