<?xml version="1.0" encoding="utf-8"?>
<!-- Generator: Adobe Illustrator 23.1.1, SVG Export Plug-In . SVG Version: 6.00 Build 0)  -->
<svg version="1.1" id="Ebene_1" xmlns="http://www.w3.org/2000/svg" xmlns:xlink="http://www.w3.org/1999/xlink" x="0px" y="0px"
	 viewBox="0 0 595.3 841.9" style="enable-background:new 0 0 595.3 841.9;" xml:space="preserve">
<style type="text/css">
	.st0{fill:#FFFFFF;}
</style>
<g id="GrandCanyon">
	<polygon class="st0" points="157.4,132.1 147.1,117.1 127.2,117.1 127.2,106.6 127.2,77.4 127.2,57.3 118.7,57.3 116,77.4 
		100.9,77.4 100.9,104.8 96.3,104.8 96.3,77.4 96.2,77.4 96.2,58.2 82.3,44.3 50.3,44.3 45.3,35.7 40.4,27.2 35.5,35.7 30.5,44.3 
		30.5,112.4 58,112.4 58,117.1 29.9,117.1 19.7,117.1 13.9,127.4 75.4,127.4 75.4,132.1 11.3,132.1 11.3,132.1 0,132.1 0,148.6 
		171.8,148.6 171.8,132.1 	"/>
</g>
</svg>
