<?xml version="1.0" encoding="utf-8"?>
<!-- Generator: Adobe Illustrator 23.1.1, SVG Export Plug-In . SVG Version: 6.00 Build 0)  -->
<svg version="1.1" id="Ebene_1" xmlns="http://www.w3.org/2000/svg" xmlns:xlink="http://www.w3.org/1999/xlink" x="0px" y="0px"
	 viewBox="0 0 595.3 841.9" style="enable-background:new 0 0 595.3 841.9;" xml:space="preserve">
<style type="text/css">
	.st0{fill:#FFFFFF;}
</style>
<g id="Rom">
	<path class="st0" d="M10.3,105.3c0-4.8,3.1-8.6,6.7-8.6c3.8,0,6.7,3.9,6.7,8.6v8.1c5-0.6,9.7-1.1,14.5-1.6v-10.7
		c0-4.8,3.1-8.6,6.7-8.6l0,0c3.8,0,6.7,3.9,6.7,8.6v9.7c5-0.3,9.7-0.5,14.5-0.6V99.9c0-4.8,3.1-8.6,6.7-8.6c3.8,0,6.7,3.9,6.7,8.6
		v10.3c7.2,0.1,14.3,0.3,21,0.8l-6.4-31.7c-28.6-0.4-59.6,5.4-93.5,17.2v20.4c3.3-0.6,6.4-1.1,9.6-1.6v-10H10.3z"/>
	<path class="st0" d="M10.3,88.3V77.4c0-4.8,3.1-8.6,6.7-8.6c3.8,0,6.7,3.9,6.7,8.6v7c5.1-1.4,9.9-2.6,14.9-3.7h-0.3v-0.2V69.6
		c0-4.8,3.1-8.6,6.7-8.6l0,0c3.8,0,6.7,3.9,6.7,8.6v8.5c4.9-0.8,9.7-1.5,14.5-2.1V65.6c0-4.8,3.1-8.6,6.7-8.6c3.8,0,6.7,3.9,6.7,8.6
		v9.3c4.7-0.3,9.2-0.4,13.7-0.3L89,52.7c-27,0.2-54.5,5.6-88.3,17.6v21.4c3.3-1.1,6.4-2.2,9.6-3.2V88.3z"/>
	<path class="st0" d="M0.7,121.6v22h9.6V134c0-4.8,3.1-8.6,6.7-8.6c3.8,0,6.7,3.9,6.7,8.6v9.5h14.6v-9.9c0-4.8,3.1-8.6,6.7-8.6l0,0
		c3.8,0,6.7,3.9,6.7,8.6v9.8h14.5v-9.5c0-4.8,3.1-8.6,6.7-8.6c3.8,0,6.7,3.9,6.7,8.6v9.5h27.6l-5.6-27.9
		C72.7,113.6,39.4,114.7,0.7,121.6z"/>
	<path class="st0" d="M84.4,28.9c-34.2,2.1-61.6,9.6-83.7,23v13.6c33.3-11.7,60.4-17,87.7-17.3L84.4,28.9z"/>
	<path class="st0" d="M112.5,144.3h5.3h3.7v-10.5c0-4.8,3.1-8.6,6.7-8.6c3.8,0,6.7,3.9,6.7,8.6v10.5h14.5V134c0-4.8,3.1-8.6,6.7-8.6
		l0,0c3.8,0,6.7,3.9,6.7,8.6v10.2h8.9v-18.3c-19.4-4.3-40.9-8.1-65.2-10L112.5,144.3z"/>
	<path class="st0" d="M105.7,111.3c5.4,0.4,10.6,0.9,15.7,1.5V104c0-4.8,3.1-8.6,6.7-8.6c3.8,0,6.7,3.9,6.7,8.6v10.5
		c5,0.7,9.8,1.5,14.5,2.4v-8.5c0-4.8,3.1-8.6,6.7-8.6l0,0c3.8,0,6.7,3.9,6.7,8.6v10.8v0.3c3,0.6,5.9,1.3,8.9,1.9v-25
		C148.3,86,124.3,80.3,99,79.4L105.7,111.3z"/>
</g>
</svg>
