<?xml version="1.0" encoding="utf-8"?>
<!-- Generator: Adobe Illustrator 23.1.1, SVG Export Plug-In . SVG Version: 6.00 Build 0)  -->
<svg version="1.1" id="Ebene_1" xmlns="http://www.w3.org/2000/svg" xmlns:xlink="http://www.w3.org/1999/xlink" x="0px" y="0px"
	 viewBox="0 0 595.3 841.9" style="enable-background:new 0 0 595.3 841.9;" xml:space="preserve">
<style type="text/css">
	.st0{fill:#FFFFFF;}
</style>
<g id="Sydney">
	<path class="st0" d="M129.4,96.9c-5.7-10.1-9.6-21.3-11.6-33.6c-3.4,14.6-3.8,29-1.4,43C120.4,102.8,124.8,99.6,129.4,96.9z"/>
	<path class="st0" d="M15.8,127.7c4.8-10.9,7.2-21.8,7-32.8C16.1,92,8.6,90.3,0.4,89.4C5.8,102.2,8,115,7,127.7H15.8z"/>
	<path class="st0" d="M139.5,127.7c0.4-15.6,9-28.5,25.6-38.5c-26.1,3.9-46.2,16.7-61.2,38.5H139.5z"/>
	<path class="st0" d="M42.7,127.7h29.8c1.1-19.3,6.6-35.9,16.9-50.2c-8-5.9-17.3-10.8-27.8-14.5l1.6-4.3c11,3.8,20.7,9,29.1,15.2
		c1.8-2.2,3.6-4.3,5.5-6.3C83.2,53.8,65.3,46.1,43.1,44.1C55.2,71.9,55.1,100,42.7,127.7z"/>
	<path class="st0" d="M163.2,127.7c0.3-12.1,2.9-24.4,7.8-36.5c-17.6,9.4-26.5,21.4-26.9,36.5H163.2z"/>
	<path class="st0" d="M20.9,127.7h16.8c8.9-19.1,11.6-38.3,8.5-57.5c-7.6-3.6-16.1-5.9-25.4-6.8C29.8,84.9,29.8,106.4,20.9,127.7z"
		/>
	<path class="st0" d="M77.3,127.7h20.9c4.2-6.6,9-12.4,14.1-17.6c-3.4-16.5-2.9-33.5,1.6-50.6C90.9,76.8,79,99.2,77.3,127.7z"/>
</g>
</svg>
