<?xml version="1.0" encoding="utf-8"?>
<!-- Generator: Adobe Illustrator 23.1.1, SVG Export Plug-In . SVG Version: 6.00 Build 0)  -->
<svg version="1.1" id="Ebene_1" xmlns="http://www.w3.org/2000/svg" xmlns:xlink="http://www.w3.org/1999/xlink" x="0px" y="0px"
	 viewBox="0 0 595.3 841.9" style="enable-background:new 0 0 595.3 841.9;" xml:space="preserve">
<style type="text/css">
	.st0{fill:#FFFFFF;}
</style>
<g id="SanFrancisco">
	<path class="st0" d="M64.6,47.3c-6.3-4-11.5-9.7-14.8-16.4v75.9h14.8V47.3z"/>
	<path class="st0" d="M83.8,53.6c-5.3-0.3-10.3-1.7-14.8-3.9v57.1h14.8V53.6z"/>
	<rect x="39.5" y="14.7" class="st0" width="5.9" height="92.1"/>
	<path class="st0" d="M123.2,30.9c-3.5,6.8-8.7,12.6-15.1,16.6v59.4h15.1V30.9z"/>
	<path class="st0" d="M35.1,30.9c-3.5,6.8-8.7,12.6-15.1,16.6v59.4h15.1V30.9z"/>
	<path class="st0" d="M152.9,47.4c-6.4-4.1-11.7-9.8-15.1-16.6v75.9h15.1V47.4z"/>
	<rect x="127.6" y="14.7" class="st0" width="5.9" height="92.1"/>
	<path class="st0" d="M103.8,49.8c-4.7,2.3-10.1,3.6-15.6,3.8v53.2h15.6V49.8z"/>
	<polygon class="st0" points="123.2,111.1 49.6,111.1 35.1,111.1 0.5,111.1 0.5,116.9 35.1,116.9 49.6,116.9 123.2,116.9 
		137.8,116.9 171.4,116.9 171.4,111.1 137.8,111.1 	"/>
	<rect x="127.6" y="121.2" class="st0" width="5.9" height="22.7"/>
	<polygon class="st0" points="35.1,148.2 26.6,148.2 26.6,154.1 58.1,154.1 58.1,148.2 49.6,148.2 	"/>
	<polygon class="st0" points="123.2,148.2 114.8,148.2 114.8,154.1 146.2,154.1 146.2,148.2 137.8,148.2 	"/>
	<rect x="39.5" y="121.2" class="st0" width="5.9" height="22.7"/>
	<path class="st0" d="M171.4,53.6c-5.3-0.3-10.3-1.7-14.8-3.9v57.1h14.8V53.6z"/>
	<path class="st0" d="M16.1,49.7C11.4,52,6,53.3,0.5,53.6v53.1h15.6V49.7z"/>
</g>
</svg>
