<?xml version="1.0" encoding="utf-8"?>
<!-- Generator: Adobe Illustrator 23.1.1, SVG Export Plug-In . SVG Version: 6.00 Build 0)  -->
<svg version="1.1" id="Ebene_1" xmlns="http://www.w3.org/2000/svg" xmlns:xlink="http://www.w3.org/1999/xlink" x="0px" y="0px"
	 viewBox="0 0 595.3 841.9" style="enable-background:new 0 0 595.3 841.9;" xml:space="preserve">
<style type="text/css">
	.st0{fill:#ffffff;}
	.st1{fill:#FFFFFF;}
</style>
<g>
	<g>
		<rect x="40.2" y="141.1" class="st0" width="17" height="30.7"/>
		<polygon class="st0" points="64.5,47.5 33.1,47.5 48.8,65.1 		"/>
		<polygon class="st0" points="20.2,91.8 36.3,77.4 20.2,63 		"/>
		<polygon class="st0" points="77.1,63.2 61.2,77.4 77.1,91.6 		"/>
		<path class="st0" d="M75.4,119.7L48.8,89.9l-26.8,29.9v3.5l-7,45.2c-0.3,1.8,1.1,3.4,2.9,3.4h17.3v-35.8h27.1v35.8h17.1
			c1.9,0,3.3-1.7,3-3.5l-6.9-45V119.7z"/>
		<path class="st0" d="M92.8,43.1l-9.6-9.6L48.8,71.9L14.1,33.3l-9.6,9.6l38.6,34.6l-37.9,34l9.6,9.6l33.9-37.9l33.7,37.7l9.6-9.6
			L54.4,77.4L92.8,43.1z M48.8,80.2c-1.5,0-2.7-1.2-2.7-2.7c0-1.5,1.2-2.7,2.7-2.7c1.5,0,2.7,1.2,2.7,2.7
			C51.5,78.9,50.3,80.2,48.8,80.2z"/>
		<path class="st1" d="M48.8,74.7c-1.5,0-2.7,1.2-2.7,2.7c0,1.5,1.2,2.7,2.7,2.7c1.5,0,2.7-1.2,2.7-2.7
			C51.5,75.9,50.3,74.7,48.8,74.7z"/>
	</g>
	<g>
		<rect x="131.3" y="73.9" class="st0" width="11.6" height="21"/>
		<polygon class="st0" points="147.9,9.9 126.4,9.9 137.2,21.9 		"/>
		<polygon class="st0" points="117.7,40.2 128.7,30.3 117.7,20.5 		"/>
		<polygon class="st0" points="156.6,20.6 145.7,30.3 156.6,40 		"/>
		<path class="st0" d="M155.4,59.2l-18.2-20.3l-18.4,20.5v2.4L114,92.7c-0.2,1.2,0.7,2.3,2,2.3h11.8V70.5h18.5V95h11.7
			c1.3,0,2.3-1.1,2.1-2.4l-4.7-30.8V59.2z"/>
		<path class="st0" d="M167.3,6.8l-6.6-6.6l-23.6,26.3L113.5,0.1l-6.6,6.6l26.4,23.7l-26,23.3l6.6,6.6l23.2-25.9L160.3,60l6.6-6.6
			l-25.8-23.1L167.3,6.8z M137.2,32.2c-1,0-1.9-0.8-1.9-1.9c0-1,0.8-1.9,1.9-1.9c1,0,1.9,0.8,1.9,1.9
			C139.1,31.4,138.2,32.2,137.2,32.2z"/>
		<path class="st1" d="M137.2,28.4c-1,0-1.9,0.8-1.9,1.9c0,1,0.8,1.9,1.9,1.9c1,0,1.9-0.8,1.9-1.9C139.1,29.3,138.2,28.4,137.2,28.4
			z"/>
	</g>
</g>
</svg>
