<?xml version="1.0" encoding="utf-8"?>
<!-- Generator: Adobe Illustrator 23.1.1, SVG Export Plug-In . SVG Version: 6.00 Build 0)  -->
<svg version="1.1" id="Ebene_1" xmlns="http://www.w3.org/2000/svg" xmlns:xlink="http://www.w3.org/1999/xlink" x="0px" y="0px"
	 viewBox="0 0 595.3 841.9" style="enable-background:new 0 0 595.3 841.9;" xml:space="preserve">
<style type="text/css">
	.st0{fill:#FFFFFF;}
</style>
<g id="ChinaMauer">
	<path class="st0" d="M103.1,117.8c19.3-7.8,37.5-15.1,50.7-32.7c0.1-0.1,0.1-0.2,0.1-0.3V71.5c0-4-5-7.3-11.1-7.3
		s-11.1,3.3-11.1,7.3v14.1l0,0c0,0.1,0,0.1,0,0.2s0,0.1,0,0.2s0,0.1-0.1,0.2c0,0.1,0,0.1-0.1,0.2l-0.1,0.1c0,0.1-0.1,0.1-0.1,0.2
		l0,0C116.8,102.9,94,112.2,72,121.2c-22.4,9.2-43.6,17.9-51,32.7c-0.2,0.3,0.1,0.8,0.5,0.8H43c0.1,0,0.3-0.1,0.4-0.2
		C62.2,134.3,82.9,125.9,103.1,117.8z"/>
	<path class="st0" d="M171.2,23.5h-8.9c-0.3,0-0.5,0.2-0.5,0.5v10.8c0,0.3-0.2,0.5-0.5,0.5h-6c0.1-0.1,0.1-0.3,0.1-0.4V24.5
		c0-0.6-0.5-1-1-1h-7.8c-0.6,0-1,0.5-1,1v10.4c0,0.2,0,0.3,0.1,0.4h-6.8c0.1-0.1,0.1-0.3,0.1-0.4V24.5c0-0.6-0.5-1-1-1h-8
		c-0.6,0-1,0.5-1,1v10.4c0,0.2,0,0.3,0.1,0.4H123c-0.3,0-0.5-0.2-0.5-0.5V24c0-0.3-0.2-0.5-0.5-0.5h-9c-0.3,0-0.5,0.2-0.5,0.5v9.4
		v36l-0.1,4.4l-4.5,9.6C103.3,76,90.1,71,76.1,65.7c-14-5.3-28.5-10.9-36.2-19.4c-0.3-0.2-0.4-0.5-0.4-0.8V39c0-2.9,3.4-5.3,7.5-5.3
		s7.5,2.4,7.5,5.3v6.4c0,0,0,0,0,0.1c1.4,1.5,3,2.8,4.6,4c0.3,0.2,0.8,0,0.8-0.4v-3.7V21.6v-3.8c0-0.3-0.2-0.5-0.5-0.5h-2.8
		c-0.3,0-0.5,0.2-0.5,0.5v4.4c0,0.3-0.2,0.5-0.5,0.5h-2.8v-4.4c0-0.6-0.5-1-1-1H50c-0.6,0-1,0.5-1,1v4.4h-0.2h-2H45v-0.1v-4.2
		c0-0.6-0.5-1-1-1h-1.8c-0.6,0-1,0.5-1,1v4.2c0,0.1,0,0.1,0,0.1h-3.3c-0.3,0-0.5-0.2-0.5-0.5v-4.4c0-0.3-0.2-0.5-0.5-0.5H34
		c-0.3,0-0.5,0.2-0.5,0.5v3.8v23.8v8.4c0,0.3,0.2,0.5,0.5,0.5h7.8v0.1l0.1-0.1c7.5,9,22.3,15,36.5,20.9c15,6.2,29.3,12,34.3,20.9
		c0.2,0.3,0.5,0.4,0.7,0.2c5-3.4,9.5-7.2,13.4-11.4c0.1-0.1,0.1-0.2,0.1-0.4v-13c0-6.1,7-11.1,15.7-11.1s15.7,5,15.7,11.1v14.1
		c0,0.4-0.1,0.7-0.3,1l0,0c-13.9,18.9-32.9,26.6-53,34.7c-18.6,7.5-37.7,15.2-55.3,32.5c-0.3,0.3-0.1,0.9,0.4,0.9h13.3
		c0.1,0,0.2,0,0.3-0.1c18.5-14.6,33.9-19,47.6-23c15.6-4.5,29-8.4,43.9-26c0.4-0.5,1.2-0.8,1.9-0.8l0,0h14.1c0.3,0,0.5-0.2,0.5-0.5
		V85.5l0,0v-52V24C171.8,23.7,171.5,23.5,171.2,23.5z"/>
	<path class="st0" d="M0.4,47.9c-0.4,0.4,0,1,0.6,0.8c6.5-2.2,14.7-1.2,24.4-0.1c1.6,0.2,3.2,0.4,4.8,0.6c0.3,0,0.6-0.2,0.6-0.5
		v-3.3v-5c0-0.3-0.2-0.5-0.5-0.5C16.2,38.7,6.5,41.3,0.4,47.9z"/>
	<path class="st0" d="M110.6,73.5c-4-6.5-16.1-9-26.8-11.9c-11.1-3-23.7-6.5-31.5-15.3c-0.3-0.2-0.4-0.5-0.4-0.8V39
		c0-1.7-2.1-3.1-4.8-3.1c-2.6,0-4.8,1.4-4.8,3.1v6.4c0,0,0,0,0,0.1c7.4,7.9,21.3,13.2,34.9,18.4c12.1,4.6,23.6,9,30,15l0.5,0.5
		l0.4-0.9"/>
	<path class="st0" d="M30.8,45.5v3.3c0,0.3-0.3,0.6-0.6,0.5c-1.7-0.2-3.3-0.4-4.8-0.6C15.7,47.5,7.5,46.6,1,48.8
		c-0.6,0.2-1-0.5-0.6-0.9c6.1-6.7,15.8-9.2,29.9-8c0.3,0,0.5,0.3,0.5,0.5V45.5z"/>
</g>
</svg>
