<?xml version="1.0" encoding="utf-8"?>
<!-- Generator: Adobe Illustrator 23.1.1, SVG Export Plug-In . SVG Version: 6.00 Build 0)  -->
<svg version="1.1" id="Ebene_1" xmlns="http://www.w3.org/2000/svg" xmlns:xlink="http://www.w3.org/1999/xlink" x="0px" y="0px"
	 viewBox="0 0 595.3 841.9" style="enable-background:new 0 0 595.3 841.9;" xml:space="preserve">
<style type="text/css">
	.st0{fill:#ffffff;}
</style>
<g id="Australia">
	<path class="st0" d="M157.8,97.5l-3.6-3l-7.4-15.3l-16.7-7.8l4.4,10.2l3.3,15.9h-3.1l-3.1-15.1L126,69.5l-1-0.5l-19.4,0l-16.6-2.5
		L67.1,69l-10.5-2.2l-4.3,13.7l3.5,17h-3.1l-3.5-17.1l4-12.7l-6.6,3.2L43.8,83L46,97.5h-3.1l-2.2-14.6l2.4-10.6L34,75l-4.9,9.3v13.2
		h-3V83.6l3.9-7.4l-11.3,3.2l-3.3,18.1H0.7v8.1h172.1v-8.1H157.8z M71.2,97.5l-2.1-16.7l3-0.4l2.2,17H71.2z M79.2,97.5L78,85.8
		l1.5-11.5l3,0.4l-1.5,11.2l1.2,11.6H79.2z M91.1,97.5l-0.5-6.8l0.9-10.1l3,0.3l-0.9,9.9l0.5,6.8H91.1z M107,97.5l0.4-11l-0.6-11.9
		l3-0.2l0.6,12.1l-0.4,11H107z"/>
</g>
</svg>
