<?xml version="1.0" encoding="utf-8"?>
<!-- Generator: Adobe Illustrator 23.1.1, SVG Export Plug-In . SVG Version: 6.00 Build 0)  -->
<svg version="1.1" id="Ebene_1" xmlns="http://www.w3.org/2000/svg" xmlns:xlink="http://www.w3.org/1999/xlink" x="0px" y="0px"
	 viewBox="0 0 595.3 841.9" style="enable-background:new 0 0 595.3 841.9;" xml:space="preserve">
<style type="text/css">
	.st0{fill:#FFFFFF;}
</style>
<g>
	<path class="st0" d="M78.9,57.9c0.3,1.6,1.4,2.9,2.8,3.5h47.1l0,0c1.7-0.7,3-2.4,3-4.4l1.2-2.5c2.1-3.9,1.8-7.6,1.8-8
		c0.2-2.6-12.1-5.1-14.6-5l-35.4,0.4c-1.8,0-3.4,1.1-4.2,2.8l-2.3,5.1c-0.4,0.9-0.5,1.9-0.4,2.9L78.9,57.9z"/>
	<path class="st0" d="M15.9,65.6l2.8,1.6c0.2,0.1,0.5,0.2,0.8,0.3l21.9-1.7l3.1-0.3l0,0L63.2,64l-2.4,0.2l2.1-0.2
		c1.6-0.1,2.7-1.3,2.6-2.7L65,57.4c-0.1-1.4-1.5-2.4-3.1-2.2l-41.5,3.5c-0.6,0-1.1,0.2-1.6,0.6l-3.3,2.4
		C14.2,62.7,14.3,64.7,15.9,65.6z"/>
	<path class="st0" d="M129.2,64.9h-15.4l-4.3,51.4c7.4,0.3,14.5,0.8,21.1,1.4L129.2,64.9z"/>
	<path class="st0" d="M63.1,101.6l3-19.3l-4.6-14.8l-16.4,1.3v48.7c6.2-0.5,12.8-0.9,19.7-1.2L63.1,101.6z"/>
	<path class="st0" d="M102,116.1l-2-51.2H82.3l-1.3,51c1.9,0,3.8,0,5.7,0C91.9,115.9,97,116,102,116.1z"/>
	<path class="st0" d="M162,122.6l-1.1-32c0-0.1,0-0.2,0-0.3l1.1-16.8c0.1-1.5-1.1-2.8-2.6-2.8h-11.6c-1.3,0-2.5,1-2.6,2.4l-2.5,29.8
		c0,0.2,0,0.3,0,0.5l1.8,15.8c1,0.1,2,0.3,2.9,0.4C153.7,120.7,158.4,121.6,162,122.6z"/>
	<path class="st0" d="M38.8,118.1l-6.4-48.2l0,0l-12,1c0.1,0,0.1,0,0.2,0L20.1,71l-2.6,12.6l2.4,37.2c1.8-0.3,3.7-0.7,5.8-1
		C29.8,119.1,34.2,118.6,38.8,118.1z"/>
	<path class="st0" d="M171,130.4c0-1.4-5-4.9-23.9-7.7c-16.1-2.4-37.6-3.8-60.5-3.8s-44.3,1.3-60.5,3.8c-18.9,2.9-23.9,6.3-23.9,7.7
		H0.1l0,0h171.7l0,0H171z"/>
</g>
</svg>
